<?xml version="1.0" encoding="UTF-8"?>
<svg width="48px" height="48px" viewBox="0 0 48 48" version="1.1" xmlns="http://www.w3.org/2000/svg" xmlns:xlink="http://www.w3.org/1999/xlink">
    <title>Nequi Logo</title>
    <g id="Nequi-Logo" stroke="none" stroke-width="1" fill="none" fill-rule="evenodd">
        <path d="M44.4734,23.9844 C44.4734,35.5974 35.0864,45.0004 23.4734,45.0004 C11.8604,45.0004 2.4734,35.5974 2.4734,23.9844 C2.4734,12.3714 11.8604,3.0004 23.4734,3.0004 C35.0864,3.0004 44.4734,12.3714 44.4734,23.9844" id="Fill-1" fill="#61108C"></path>
        <path d="M37.9814,25.7793 C37.4734,25.7793 37.0624,26.1903 37.0624,26.6993 C37.0624,27.2073 37.4734,27.6183 37.9814,27.6183 C38.4894,27.6183 38.9004,27.2073 38.9004,26.6993 C38.9004,26.1903 38.4894,25.7793 37.9814,25.7793 M37.9814,29.3703 C36.5054,29.3703 35.3104,28.1743 35.3104,26.6993 C35.3104,25.2233 36.5054,24.0273 37.9814,24.0273 C39.4574,24.0273 40.6534,25.2233 40.6534,26.6993 C40.6534,28.1743 39.4574,29.3703 37.9814,29.3703 M32.8324,14.0003 L32.8324,33.9693 L34.5844,33.9693 L34.5844,13.6603 C34.5844,12.4073 33.3464,11.6113 32.2534,12.1853 L12.9654,21.8093 C12.4014,22.0993 12.0624,22.6703 12.0624,23.2953 L12.0624,33.9693 L13.8144,33.9693 L13.8144,24.1823 L32.8324,14.0003 Z" id="Fill-4" fill="#FFFFFF"></path>
    </g>
</svg>
